<svg t="1591783501907" class="icon" viewBox="0 0 1024 1024" version="1.1" xmlns="http://www.w3.org/2000/svg" p-id="2677" width="200" height="200"><path d="M660.698159 936.87264c-30.501688 0-59.178821-11.873422-80.747046-33.440623L250.760672 574.229297c-22.10546-22.092158-34.20094-52.67264-33.308617-84.026742-0.917906-31.394011 11.189853-61.986773 33.308617-84.104513L579.965439 76.893274c21.567201-21.567201 50.232055-33.4396 80.733743-33.4396 30.513968 0 59.178821 11.872399 80.733743 33.4396 44.525076 44.525076 44.525076 116.967992 0 161.493068L489.654574 490.163669l251.776304 251.776304c44.525076 44.526099 44.525076 116.969015 0 161.493068C719.8647 925.000242 691.198823 936.87264 660.698159 936.87264zM660.698159 97.187483c-16.148795 0-31.327496 6.284123-42.742477 17.697057L295.115879 444.090331c-11.964496 11.990079-11.189853 27.994588-11.189853 45.075615 0 0.682545 0 1.351787 0 2.034333 0 17.067724-0.774643 33.05893 11.189853 45.036729l326.017168 329.203744c11.411911 11.412934 25.016767 17.698081 41.153282 17.698081 16.163121 0 30.540573-6.285147 41.954531-17.698081 23.573905-23.573905 23.168676-61.933561-0.406253-85.509513L432.863127 509.159302c-10.495028-10.495028-10.587126-27.498284-0.091074-37.992289l270.720771-270.77296c23.560602-23.574928 23.548322-61.934584-0.014326-85.509513C692.065564 103.471606 676.847977 97.187483 660.698159 97.187483z" p-id="2678" fill="#cccccc"></path></svg>